
<global>
amp_veltrack=0
</global>

<group>
ampeg_attack=0.01
ampeg_release=0.2
group_label=Sustain_0-45
lpc_hicc1=42
lpc_locc1=0

<region>
hikey=a#4
hivel=127
lokey=a4
lovel=1
lpc=ho3UQSUTj8LfEYxCj+eewZLYhsF3y65BnRIOwc9FXsDdy0pAPtumQB4aK8FdL8RA4GCbQJuWysDBe5lAx7oGwUhUt0DyTpRA6dQjwU9PzkCxceQ/5jCawFZFOED3402/
lpc_rms=-23.94
pitch_keycenter=a#4
sample=Oboe_fall_PP_A#4.opus
</region>

<region>
hikey=a#5
hivel=127
lokey=a5
lovel=1
lpc=vM/zQSZBkMJjtnFCmnV3wVQ9O8CSARVAIjANvZypWUCoZYjABlHCv33v/j/33pxAwNQRwPdD2r0Sj6U97tfTwPhsIkGxINo/qOT6wMeWi0C453bA0y/oQC3L4MAAMlVA
lpc_rms=-23.86
pitch_keycenter=a#5
sample=Oboe_fall_PP_A#5.opus
</region>

<region>
hivel=127
key=c4
lovel=1
lpc=aqxWQnc/L8ONK1xDZe/lwrT41T+NVUtBz9GUQYL1fMGQtj/BR/vEQTEm98FL7dxB422nPnUNo8ES+lxBmUApPwD/I8FbVEhBGwKbwIddN8GBpoxB1oSQwIm/o8AgWi9A
lpc_rms=-22.46
sample=Oboe_fall_PP_C4.opus
</region>

<region>
hikey=c5
hivel=127
lokey=b4
lovel=1
lpc=Sx/KQTWxfsKns2RC7F12wdvmAcHH9gBBcyeGvwVSBUANVpXA4AaSP3VCwb/O4hpAFrKvPwroUMCChpZAnuaFwFf1E0C6U8a/xtVwvt2dfz455u4/U6qBv0yKPb0/RmG+
lpc_rms=-24.72
pitch_keycenter=c5
sample=Oboe_fall_PP_C5.opus
</region>

<region>
hikey=c6
hivel=127
lokey=b5
lovel=1
lpc=Zf6eQUL/McJHmiNC27ygwT941UCp+uI/85ObwPnPhUDsdEfA4J6nQJPAm8CQqSpA5H/DPsTDI70WayY+xtklv0SXIEAUTbu/olgmP53QjL8b33ZA+5rowBC4mUCFBfU9
lpc_rms=-26.04
pitch_keycenter=c6
sample=Oboe_fall_PP_C6.opus
</region>

<region>
hikey=d4
hivel=127
lokey=c#4
lovel=1
lpc=nQnxQewmrMIQibtCwSIxwtjAOD+yUF5BvPAIwbbJasBCUTxBFV4SwSBsVD/9+0q+MU4EQBfpkz0pv+49zZ0yQBIXBMHdLn5AsvrWQNrDPcGCQAdBTU30vwPHlL+bdkA/
lpc_rms=-24.79
pitch_keycenter=d4
sample=Oboe_fall_PP_D4.opus
</region>

<region>
hikey=d5
hivel=127
lokey=c#5
lovel=1
lpc=//D6QTiZusJfdOBC8gZ7wpuzZEDXU8RBiim4wVMVC0GuMta+piqmQJ0rBcGu5pu/3WwKQf1pm7+Xq6+/TZ2OwGADHz9UQspANUTGv4nc5cDwxqJAQiXFQGI5GsEBxoRA
lpc_rms=-24.21
pitch_keycenter=d5
sample=Oboe_fall_PP_D5.opus
</region>

<region>
hikey=d6
hivel=127
lokey=c#6
lovel=1
lpc=d2uwQfLsSMJtoy5CNOxdwdcKhb7Z65s/Y0rmvpJ7hEAAvajAsUbPPzgCcEBLo4jALO+OQDMBNr9ZnxbAASceQHvWIMBfpfVATpsAwaoW1D8DT8PAPMqPQR3uYsHP9WtA
lpc_rms=-25.96
pitch_keycenter=d6
sample=Oboe_fall_PP_D6.opus
</region>

<region>
hikey=e4
hivel=127
lokey=d#4
lovel=1
lpc=RyhUQiGVI8NvXT9Dt3O0wkUIz8Dbnv5BmznMwRSkp0FXe2vB5/awQLIQH8BrAizB60DrQaWuhsHysk/ApYqVwOTEjUG14mDBralGvrgB+kDq78nAIxZDQYjhfcHjYNVA
lpc_rms=-20.29
pitch_keycenter=e4
sample=Oboe_fall_PP_E4.opus
</region>

<region>
hikey=e5
hivel=127
lokey=d#5
lovel=1
lpc=qHVhQvzdEsN2hBJDU15YwglapMBO/cVAObqwwHE2oEESt9DAeMbKwTC4ukF3O7LASstMQZVfB8HFq1LBut1bQVbdfj+SnhNAx/pLwbBYt0C5i6lAMKpjQTorCMJNT5xB
lpc_rms=-19.66
pitch_keycenter=e5
sample=Oboe_fall_PP_E5.opus
</region>

<region>
hikey=A6
hivel=127
lokey=d#6
lovel=1
lpc=Kw1pQsU6FMNxrxlDAMaMwokzBUCWrXBBW0SmwHeipUBSW0TBgih+QaUWBcFENp1AIR6nwJK+0UDrjYfA5v/LQPm37MDFVElBhqANwkDODkItx5JBC0lcwosyDkK+2uLA
lpc_rms=-22.04
pitch_keycenter=E6
sample=Oboe_fall_PP_E6.opus
</region>

<region>
hikey=f#4
hivel=127
lokey=f4
lovel=1
lpc=AbX9QdUptcKbP7xCjD8GwnwVKMG4g2NBrPYLwLRmQsBYaTrAxTY8QGatsEADOTHBG5UdQYg1iL8bIGfA4iy7vszQR0BSSTjAj+SuPwGT2r/cKZtARytnwNO1Gr0wZxc/
lpc_rms=-24.91
pitch_keycenter=f#4
sample=Oboe_fall_PP_F#4.opus
</region>

<region>
hikey=f#5
hivel=127
lokey=f5
lovel=1
lpc=TY6aQVmeO8IerDRCiSObwf0+MEB+tg4/1CfyPgZejz//zIQ/zwHpwHrJ2EBqD4q+LkkIP60bScDwiPU/8+oSQO4JhcADZ19Ab7T0vyXGOEC3MuK/oFiCwGA060BdmivA
lpc_rms=-27.40
pitch_keycenter=f#5
sample=Oboe_fall_PP_F#5.opus
</region>

<region>
hikey=g#4
hivel=127
lokey=g4
lovel=1
lpc=V2LnQXtSnMJANIdCjKg5QCZBH8IqEKNBQf8YQZOoeMGbG9FAFiuMwI8/rb8hcEdBqDFhwbw+MEH0kCu/2q8ywV2vGEFYa+fAijgvQT/4F8EnvhtAZT+cQBpLzcDFUB5A
lpc_rms=-24.93
pitch_keycenter=g#4
sample=Oboe_fall_PP_G#4.opus
</region>

<region>
hikey=g#5
hivel=127
lokey=g5
lovel=1
lpc=MafvQSKgkcKBfXVCp1urwOPa28HkqZ9BZA25QJ5UN8Ecz+U/0uQcwCIdsT/VBjJB89B4wQCMJUFH2VBAAa82wXaLsECFZr280d0tQLNhAsE1+GZBff2LwPSiFMH6/sxA
lpc_rms=-22.73
pitch_keycenter=g#5
sample=Oboe_fall_PP_G#5.opus
</region>
</group>

<group>
ampeg_attack=0.01
ampeg_release=0.2
group_label=Sustain_91-127
lpc_hicc1=84
lpc_locc1=43

<region>
hikey=a#4
hivel=127
lokey=a4
lovel=1
lpc=zQsYQiEF2cJJu/ZCSxt5wunzAEBsoH5B33UiwSqBBUFei67Azpl6QOb7fMEVNrBBZH8QwTLgesA3DEBBiYhhwckR8EDHsqw/UYuewHCvir8GA7lAJ+NYP1xjcMB/WEo/
lpc_rms=-17.74
pitch_keycenter=a#4
sample=Oboe_fall_FF_A#4.opus
</region>

<region>
hikey=a#5
hivel=127
lokey=a5
lovel=1
lpc=6CMCQoNTs8KYycZCbAlHwnGSLECg5YZBT3qIwXzMbUHOxyPBbA+aP3XyI0C5i3FABaMwwCg6ccA12RZB84JqwWQjkEFH4BrBM3GbPwmIob9tZYk/FSzdQOWgJMHBGqBA
lpc_rms=-17.37
pitch_keycenter=a#5
sample=Oboe_fall_FF_A#5.opus
</region>

<region>
hivel=127
key=c4
lovel=1
lpc=4tyBQu9aY8Pip69D2oyawxAdJUNhwU3CXuvqQOzPnkFTgSjCZ0XuQePCccDTHlu951GBwf5A/0HGRtbByOdQQfRPlcE4BhFCbVUFwmeRQEH/6vfAUtzFQW6S2sHCOi1B
lpc_rms=-13.60
sample=Oboe_fall_FF_C4.opus
</region>

<region>
hikey=c5
hivel=127
lokey=b4
lovel=1
lpc=y1eiQb1pWMK5f2pC2pj5wdtrw0C786hAWYnKwGbgWUB9GqO+AQEvP4vDBsB9s11AsaqBwA/wI0AvYte/Rq11P//rF0DXYyXA+Itbvu3Orj/AYMM/7z2uwN4vn0BPwcu/
lpc_rms=-22.69
pitch_keycenter=c5
sample=Oboe_fall_FF_C5.opus
</region>

<region>
hikey=c6
hivel=127
lokey=b5
lovel=1
lpc=Kx+kQSGuWsKsb3xCMhsdwv+GBkG8bmRB5W6XwfpXLUHkSJW/xv7Ev5agNr9kF7JAqd7/wBBPxEB3/mu/UVwjwFiSFEBX94hAwQJBwWiJVUEwizK/HdCewfWLu0EFMgfB
lpc_rms=-21.27
pitch_keycenter=c6
sample=Oboe_fall_FF_C6.opus
</region>

<region>
hikey=d4
hivel=127
lokey=c#4
lovel=1
lpc=y/sDQtZo0cLflglD9N67wvr2DELk1tDAYVE7wAwuhkCRsrVABEBNwX7Ewj/QaBlBkw5ov8EYG8HKh+5AlJKCv2y3BsHm+rZBOcHqwVBwp0Gd1VHBbC1jQV3LLMEBzDhA
lpc_rms=-18.10
pitch_keycenter=d4
sample=Oboe_fall_FF_D4.opus
</region>

<region>
hikey=d5
hivel=127
lokey=c#5
lovel=1
lpc=yq2NQSWlX8Kk/J1CwzGBwvd/AUJDrdvAY2lAwDTVeEANX4jAU7PeQCO2GsGV28ZA0UAFQNYJa8Cq1wI/Twd6P3ypVcCJQ6tAPQwGwG5TPsDO1IxAVdtWv1gSEsD8C8c/
lpc_rms=-20.18
pitch_keycenter=d5
sample=Oboe_fall_FF_D5.opus
</region>

<region>
hikey=d6
hivel=127
lokey=c#6
lovel=1
lpc=2BvYQbDciMIl8o5CONsOwpelpkBF6yhBchxdwfEqEUFCbv6/v5e9PsbcA8A366VAJC5WwKbSQD/EGypAceiDwK/2JECVxY9ALpjQwCoVwb/MpaTAOF7oQWs08sG+gCpB
lpc_rms=-20.48
pitch_keycenter=d6
sample=Oboe_fall_FF_D6.opus
</region>

<region>
hikey=e4
hivel=127
lokey=d#4
lovel=1
lpc=Lb8WQoNi8sLk+SRDpI/pwizkBUKufn9Bn7+OwRtY9EAuYtXA1on6QP/E2sD0iJ6/NWcnQYPYyMDA7xnAJ/X0P/5dvkCmeFDBhzpGQZTA/MBDfcE/w/ENQe+EQMHOx51A
lpc_rms=-17.22
pitch_keycenter=e4
sample=Oboe_fall_FF_E4.opus
</region>

<region>
hikey=e5
hivel=127
lokey=d#5
lovel=1
lpc=8xl/QmvdN8O3iWRDyU8fww9Zi0IV42LBXcBhwIuBhkHdc9nBUWJ7QZUdIcDTpoW+q8JHQS4tgMF+eSlBPdF8wTJwtEFpUnTBaSf2P8dKI0HQy4fBZuPeQZXg+ME07XBB
lpc_rms=-10.51
pitch_keycenter=e5
sample=Oboe_fall_FF_E5.opus
</region>

<region>
hikey=A6
hivel=127
lokey=d#6
lovel=1
lpc=i8ZoQmCkFcMPGx9Dnn2fwhgORUHZIA5BRB1LwBYJVkAQNiXBOPdtQVPZ+MDqVXFAJ6wVwCEVTUCF/Iq/0faQQON29cBPTElBSMU3wkg4m0JwJDXCVk+3wI5WeUFwPWnA
lpc_rms=-12.37
pitch_keycenter=E6
sample=Oboe_fall_FF_E6.opus
</region>

<region>
hikey=f#4
hivel=127
lokey=f4
lovel=1
lpc=0iy5QXADkcJtzcFCjfKDwqNLZkEr11pBZSM4wWWudkDf8Ku/+OuGPwHz/b+qskHA1HBFQdMhU8H4RudAu1o5v1iBQMAUviVArScJwAadTEAOWKrAW53jQHOKl8Al1ow/
lpc_rms=-21.56
pitch_keycenter=f#4
sample=Oboe_fall_FF_F#4.opus
</region>

<region>
hikey=f#5
hivel=127
lokey=f5
lovel=1
lpc=lm3MQcRtmsLcpNpCyyqywqffLEIooVvBzp4WQWmOgsDCDN3AiwsVQQTWoz/x9RnBWGwWQUJdnMAcRxpA8tOIPyKOqMBbPeNAYYyAwDxrSUDaotrApfEaQb3LxsBwOhFA
lpc_rms=-16.66
pitch_keycenter=f#5
sample=Oboe_fall_FF_F#5.opus
</region>

<region>
hikey=g#4
hivel=127
lokey=g4
lovel=1
lpc=+wOoQXEAdMIiWY1C35nzwWKEWcEeAcZBZZ8PwdvlysDDwhhBN0zGwEbATD9+YclAFMkYwQX/D0EmdL/A6ptIP4OMXEBh8KDAhiz5QN+RQ8Fn2ypBN+2Ev8RYlsBbKRRA
lpc_rms=-21.95
pitch_keycenter=g#4
sample=Oboe_fall_FF_G#4.opus
</region>

<region>
hikey=g#5
hivel=127
lokey=g5
lovel=1
lpc=91YdQvgc2MKk7fdC2ySHwqkVH0AMLN5BAYhIwasstsD2k+w/Qmm4P6Yj5z/Dv31ADyyFwSyC8kEhlrHBcJzCvmjiokDWpU8/7r9kQLerhMEzNN9BoKB1wZ+oqMBlJcBA
lpc_rms=-14.73
pitch_keycenter=g#5
sample=Oboe_fall_FF_G#5.opus
</region>
</group>

<group>
ampeg_attack=0.01
ampeg_release=0.2
group_label=Sustain_46-90
lpc_hicc1=127
lpc_locc1=85

<region>
hikey=a#4
hivel=127
lokey=a4
lovel=1
lpc=DevvQa47nML7YpFCL2+owSCwAcFCBUNBz3MbwV3bskDVeJjAq2IHQZE8MMFMAORAm0eqvzWtd0AVEcE/DJ1XwdIED0EFgU5AZWFCwPiOJcBsVyVATuX+PzCTGcAUQMQ+
lpc_rms=-21.53
pitch_keycenter=a#4
sample=Oboe_fall_MF_A#4.opus
</region>

<region>
hikey=a#5
hivel=127
lokey=a5
lovel=1
lpc=ZQEJQlnjs8IzfrRCjsj3wRosPsH1XH1BAjf5wLGVBUHD5uLALj5AQNDC6b9pHA5AGBaHQKtH6sDQsstAoobewB8gBkGZD7q/jPZiwO1v5D/5v3PASlOHQRhhpMEnwA1B
lpc_rms=-18.66
pitch_keycenter=a#5
sample=Oboe_fall_MF_A#5.opus
</region>

<region>
hivel=127
key=c4
lovel=1
lpc=5YB0QsD3SMN89IJDos0gw1GKKUKd/HPBVKkDQtBQ5cGIH5BBrEbbwfCAmkFEA0tBzF7dwWOTrkG35IDAqaAewdtnij/QjFBBLGULwYvk8MAimS5BUD/ZQA5Xg8GLKu1A
lpc_rms=-17.96
sample=Oboe_fall_MF_C4.opus
</region>

<region>
hikey=c5
hivel=127
lokey=b4
lovel=1
lpc=isKkQQUoVMLe+0dCyo5xwR5D3MAZ4f5AoOBfwJPbcEBbrO+/soEDwNxr97/0FNVAOCkqwHWmmMCxdRxBgUUFwWzvdUCzwU0/c+CmwPouo0DnYb6/Y7nVvhU2iz9Yiju/
lpc_rms=-24.59
pitch_keycenter=c5
sample=Oboe_fall_MF_C5.opus
</region>

<region>
hikey=c6
hivel=127
lokey=b5
lovel=1
lpc=imKOQazePcL0HlVCQ6zXweJgHcCxrXhBOuk6wVjhi0AV2+Q+GeXyv746hj/DRz1ANbKJwIftZT8/e4VAmpySwIXEyj+3/W9ALi8AwYzGBUGmKqM/hhyBwd2wikG4C7fA
lpc_rms=-23.82
pitch_keycenter=c6
sample=Oboe_fall_MF_C6.opus
</region>

<region>
hikey=d4
hivel=127
lokey=c#4
lovel=1
lpc=18HdQUi8qcKDk8xCxtxbwkaa7UD7Yrs/LYjnQAq3JcF34AZBo9HFwF4CXkBBnoDAlwMSQTaJEMEEinNAlkNGP2fK9cC56D5Bp3dHwJEfE8GhovxA1xdtP8duI8C57qQ+
lpc_rms=-22.07
pitch_keycenter=d4
sample=Oboe_fall_MF_D4.opus
</region>

<region>
hikey=d5
hivel=127
lokey=c#5
lovel=1
lpc=QdemQUHigMJgOLBCB8qFwr0g3UHpSyXAMBovwHpYJECIZV3A7Q2RQE1/qcAKhnZAnHuHPjnM8b99EzE7+DzeP6kEGMBJhec/lz3WP7plKsBntI+/kHbhQP/8CMFYd4BA
lpc_rms=-20.63
pitch_keycenter=d5
sample=Oboe_fall_MF_D5.opus
</region>

<region>
hikey=d6
hivel=127
lokey=c#6
lovel=1
lpc=ENO7QSfUcMLTmn5CixEBwrn9rUCuuKVAy1CtwFCuukDHdPvAjNgNQfZtqMA4IqQ/tMT6PniLBUDXjPa/OqsIwAPprUArhSbA7YXhvlmvBEDLIY7BP+ERQs4M4cEEd/hA
lpc_rms=-21.34
pitch_keycenter=d6
sample=Oboe_fall_MF_D6.opus
</region>

<region>
hikey=e4
hivel=127
lokey=d#4
lovel=1
lpc=Q1suQgOBBsNZOyJDzsSrwsezzUD7W0NBcsUbP9Hh3b8HhnbACSfPP4naBECJ3FvB+9DPQd7iTMEWVCfBvv4YQQKaEUGq6jPBg6qfwJsBQEEn8j7BFhiaQUx4mcFMX+NA
lpc_rms=-18.79
pitch_keycenter=e4
sample=Oboe_fall_MF_E4.opus
</region>

<region>
hikey=e5
hivel=127
lokey=d#5
lovel=1
lpc=E/F7QgULKsPVu0BDu/XxwqpmMkLoZcY/ACZxwfwWpUEwVTTBtxBGwXZ4f0ESdu/Aok2MQNtYyUCVu//APgWYv1MsnUChT7Q/ij6hwF+/3D4+Kvq/MCGKQccVssF8GixB
lpc_rms=-15.78
pitch_keycenter=e5
sample=Oboe_fall_MF_E5.opus
</region>

<region>
hikey=A6
hivel=127
lokey=d#6
lovel=1
lpc=1PZsQqY3F8O6Ix1Dj4eQwoVXHUAmvXZBRj7OwC/D4kB2slfB9xZ0QTvzz8CFD0ZAQq9lwLP5nEDUlDvAIFGpQBR8tsA6ABxBs+XXwZeUe0GNaC1CGnWNwv0XHkJO6OHA
lpc_rms=-19.05
pitch_keycenter=E6
sample=Oboe_fall_MF_E6.opus
</region>

<region>
hikey=f#4
hivel=127
lokey=f4
lovel=1
lpc=sdLvQb3SusJTtvJC4CaYwlTfOUFAzURBu0ljvjFfmcBzTy2//JcavzkL/D8itqG+jKGHQGbIIMF+0ARBxtxVPygPNsAwyobAxnNWQCb3q0CGcgzB9G+JQKFvoD9w596/
lpc_rms=-21.20
pitch_keycenter=f#4
sample=Oboe_fall_MF_F#4.opus
</region>

<region>
hikey=f#5
hivel=127
lokey=f5
lovel=1
lpc=aJ/3QcRIucItyOxCSrGVwuOxc0HxxRJBAUyMwDAaO0D0EpjA/j4MvzyCCUEWBTXBvjgsQcRFCMGC7TVA/k/nQAIuK8HJmHtAUUg9QKq3GcABE9+/ZIx/QPMAAsDqFwQ/
lpc_rms=-18.38
pitch_keycenter=f#5
sample=Oboe_fall_MF_F#5.opus
</region>

<region>
hikey=g#4
hivel=127
lokey=g4
lovel=1
lpc=B/O0QQ2nesJWNIFCDrSPwbahqsE0xcJBYbX2wJeW/b9SH4JA8ZS1wHez8D+MOuw+MvyQQPsbt7/XUOrASXB9QJ94DUHXfjrBdPytvLkxIEG3QSHB2snSQNKQS8A4gjo/
lpc_rms=-22.17
pitch_keycenter=g#4
sample=Oboe_fall_MF_G#4.opus
</region>

<region>
hikey=g#5
hivel=127
lokey=g5
lovel=1
lpc=BcsAQpabrMKhnbFCpR8KwkZqAMEYk5ZBAXtWwdp5tEAKYWxAChUNwdy6LT+cnSRBHaEBwWIIikCMJQLAEFVHwNKzDEGwNELBa1khQRiAnb6Z/IPAUMiAQHGNhsAshRJA
lpc_rms=-19.39
pitch_keycenter=g#5
sample=Oboe_fall_MF_G#5.opus
</region>
</group>

<group>
ampeg_attack=0.05
ampeg_release=5.0
group_label=Release_0-45
lpc_hicc1=42
lpc_locc1=0
trigger=release

<region>
hikey=a#4
hivel=127
lokey=a4
lovel=1
lpc=ho3UQSUTj8LfEYxCj+eewZLYhsF3y65BnRIOwc9FXsDdy0pAPtumQB4aK8FdL8RA4GCbQJuWysDBe5lAx7oGwUhUt0DyTpRA6dQjwU9PzkCxceQ/5jCawFZFOED3402/
lpc_rms=-23.94
offset=104000
pitch_keycenter=a#4
sample=Oboe_fall_PP_A#4.opus
</region>

<region>
hikey=a#5
hivel=127
lokey=a5
lovel=1
lpc=vM/zQSZBkMJjtnFCmnV3wVQ9O8CSARVAIjANvZypWUCoZYjABlHCv33v/j/33pxAwNQRwPdD2r0Sj6U97tfTwPhsIkGxINo/qOT6wMeWi0C453bA0y/oQC3L4MAAMlVA
lpc_rms=-23.86
offset=104000
pitch_keycenter=a#5
sample=Oboe_fall_PP_A#5.opus
</region>

<region>
hivel=127
key=c4
lovel=1
lpc=aqxWQnc/L8ONK1xDZe/lwrT41T+NVUtBz9GUQYL1fMGQtj/BR/vEQTEm98FL7dxB422nPnUNo8ES+lxBmUApPwD/I8FbVEhBGwKbwIddN8GBpoxB1oSQwIm/o8AgWi9A
lpc_rms=-22.46
offset=104000
sample=Oboe_fall_PP_C4.opus
</region>

<region>
hikey=c5
hivel=127
lokey=b4
lovel=1
lpc=Sx/KQTWxfsKns2RC7F12wdvmAcHH9gBBcyeGvwVSBUANVpXA4AaSP3VCwb/O4hpAFrKvPwroUMCChpZAnuaFwFf1E0C6U8a/xtVwvt2dfz455u4/U6qBv0yKPb0/RmG+
lpc_rms=-24.72
offset=104000
pitch_keycenter=c5
sample=Oboe_fall_PP_C5.opus
</region>

<region>
hikey=c6
hivel=127
lokey=b5
lovel=1
lpc=Zf6eQUL/McJHmiNC27ygwT941UCp+uI/85ObwPnPhUDsdEfA4J6nQJPAm8CQqSpA5H/DPsTDI70WayY+xtklv0SXIEAUTbu/olgmP53QjL8b33ZA+5rowBC4mUCFBfU9
lpc_rms=-26.04
offset=104000
pitch_keycenter=c6
sample=Oboe_fall_PP_C6.opus
</region>

<region>
hikey=d4
hivel=127
lokey=c#4
lovel=1
lpc=nQnxQewmrMIQibtCwSIxwtjAOD+yUF5BvPAIwbbJasBCUTxBFV4SwSBsVD/9+0q+MU4EQBfpkz0pv+49zZ0yQBIXBMHdLn5AsvrWQNrDPcGCQAdBTU30vwPHlL+bdkA/
lpc_rms=-24.79
offset=104000
pitch_keycenter=d4
sample=Oboe_fall_PP_D4.opus
</region>

<region>
hikey=d5
hivel=127
lokey=c#5
lovel=1
lpc=//D6QTiZusJfdOBC8gZ7wpuzZEDXU8RBiim4wVMVC0GuMta+piqmQJ0rBcGu5pu/3WwKQf1pm7+Xq6+/TZ2OwGADHz9UQspANUTGv4nc5cDwxqJAQiXFQGI5GsEBxoRA
lpc_rms=-24.21
offset=104000
pitch_keycenter=d5
sample=Oboe_fall_PP_D5.opus
</region>

<region>
hikey=d6
hivel=127
lokey=c#6
lovel=1
lpc=d2uwQfLsSMJtoy5CNOxdwdcKhb7Z65s/Y0rmvpJ7hEAAvajAsUbPPzgCcEBLo4jALO+OQDMBNr9ZnxbAASceQHvWIMBfpfVATpsAwaoW1D8DT8PAPMqPQR3uYsHP9WtA
lpc_rms=-25.96
offset=104000
pitch_keycenter=d6
sample=Oboe_fall_PP_D6.opus
</region>

<region>
hikey=e4
hivel=127
lokey=d#4
lovel=1
lpc=RyhUQiGVI8NvXT9Dt3O0wkUIz8Dbnv5BmznMwRSkp0FXe2vB5/awQLIQH8BrAizB60DrQaWuhsHysk/ApYqVwOTEjUG14mDBralGvrgB+kDq78nAIxZDQYjhfcHjYNVA
lpc_rms=-20.29
offset=104000
pitch_keycenter=e4
sample=Oboe_fall_PP_E4.opus
</region>

<region>
hikey=e5
hivel=127
lokey=d#5
lovel=1
lpc=qHVhQvzdEsN2hBJDU15YwglapMBO/cVAObqwwHE2oEESt9DAeMbKwTC4ukF3O7LASstMQZVfB8HFq1LBut1bQVbdfj+SnhNAx/pLwbBYt0C5i6lAMKpjQTorCMJNT5xB
lpc_rms=-19.66
offset=104000
pitch_keycenter=e5
sample=Oboe_fall_PP_E5.opus
</region>

<region>
hikey=A6
hivel=127
lokey=d#6
lovel=1
lpc=Kw1pQsU6FMNxrxlDAMaMwokzBUCWrXBBW0SmwHeipUBSW0TBgih+QaUWBcFENp1AIR6nwJK+0UDrjYfA5v/LQPm37MDFVElBhqANwkDODkItx5JBC0lcwosyDkK+2uLA
lpc_rms=-22.04
offset=104000
pitch_keycenter=E6
sample=Oboe_fall_PP_E6.opus
</region>

<region>
hikey=f#4
hivel=127
lokey=f4
lovel=1
lpc=AbX9QdUptcKbP7xCjD8GwnwVKMG4g2NBrPYLwLRmQsBYaTrAxTY8QGatsEADOTHBG5UdQYg1iL8bIGfA4iy7vszQR0BSSTjAj+SuPwGT2r/cKZtARytnwNO1Gr0wZxc/
lpc_rms=-24.91
offset=104000
pitch_keycenter=f#4
sample=Oboe_fall_PP_F#4.opus
</region>

<region>
hikey=f#5
hivel=127
lokey=f5
lovel=1
lpc=TY6aQVmeO8IerDRCiSObwf0+MEB+tg4/1CfyPgZejz//zIQ/zwHpwHrJ2EBqD4q+LkkIP60bScDwiPU/8+oSQO4JhcADZ19Ab7T0vyXGOEC3MuK/oFiCwGA060BdmivA
lpc_rms=-27.40
offset=104000
pitch_keycenter=f#5
sample=Oboe_fall_PP_F#5.opus
</region>

<region>
hikey=g#4
hivel=127
lokey=g4
lovel=1
lpc=V2LnQXtSnMJANIdCjKg5QCZBH8IqEKNBQf8YQZOoeMGbG9FAFiuMwI8/rb8hcEdBqDFhwbw+MEH0kCu/2q8ywV2vGEFYa+fAijgvQT/4F8EnvhtAZT+cQBpLzcDFUB5A
lpc_rms=-24.93
offset=104000
pitch_keycenter=g#4
sample=Oboe_fall_PP_G#4.opus
</region>

<region>
hikey=g#5
hivel=127
lokey=g5
lovel=1
lpc=MafvQSKgkcKBfXVCp1urwOPa28HkqZ9BZA25QJ5UN8Ecz+U/0uQcwCIdsT/VBjJB89B4wQCMJUFH2VBAAa82wXaLsECFZr280d0tQLNhAsE1+GZBff2LwPSiFMH6/sxA
lpc_rms=-22.73
offset=104000
pitch_keycenter=g#5
sample=Oboe_fall_PP_G#5.opus
</region>
</group>

<group>
ampeg_attack=0.05
ampeg_release=5.0
group_label=Release_91-127
lpc_hicc1=84
lpc_locc1=43
trigger=release

<region>
hikey=a#4
hivel=127
lokey=a4
lovel=1
lpc=zQsYQiEF2cJJu/ZCSxt5wunzAEBsoH5B33UiwSqBBUFei67Azpl6QOb7fMEVNrBBZH8QwTLgesA3DEBBiYhhwckR8EDHsqw/UYuewHCvir8GA7lAJ+NYP1xjcMB/WEo/
lpc_rms=-17.74
offset=104000
pitch_keycenter=a#4
sample=Oboe_fall_FF_A#4.opus
</region>

<region>
hikey=a#5
hivel=127
lokey=a5
lovel=1
lpc=6CMCQoNTs8KYycZCbAlHwnGSLECg5YZBT3qIwXzMbUHOxyPBbA+aP3XyI0C5i3FABaMwwCg6ccA12RZB84JqwWQjkEFH4BrBM3GbPwmIob9tZYk/FSzdQOWgJMHBGqBA
lpc_rms=-17.37
offset=104000
pitch_keycenter=a#5
sample=Oboe_fall_FF_A#5.opus
</region>

<region>
hivel=127
key=c4
lovel=1
lpc=4tyBQu9aY8Pip69D2oyawxAdJUNhwU3CXuvqQOzPnkFTgSjCZ0XuQePCccDTHlu951GBwf5A/0HGRtbByOdQQfRPlcE4BhFCbVUFwmeRQEH/6vfAUtzFQW6S2sHCOi1B
lpc_rms=-13.60
offset=104000
sample=Oboe_fall_FF_C4.opus
</region>

<region>
hikey=c5
hivel=127
lokey=b4
lovel=1
lpc=y1eiQb1pWMK5f2pC2pj5wdtrw0C786hAWYnKwGbgWUB9GqO+AQEvP4vDBsB9s11AsaqBwA/wI0AvYte/Rq11P//rF0DXYyXA+Itbvu3Orj/AYMM/7z2uwN4vn0BPwcu/
lpc_rms=-22.69
offset=104000
pitch_keycenter=c5
sample=Oboe_fall_FF_C5.opus
</region>

<region>
hikey=c6
hivel=127
lokey=b5
lovel=1
lpc=Kx+kQSGuWsKsb3xCMhsdwv+GBkG8bmRB5W6XwfpXLUHkSJW/xv7Ev5agNr9kF7JAqd7/wBBPxEB3/mu/UVwjwFiSFEBX94hAwQJBwWiJVUEwizK/HdCewfWLu0EFMgfB
lpc_rms=-21.27
offset=104000
pitch_keycenter=c6
sample=Oboe_fall_FF_C6.opus
</region>

<region>
hikey=d4
hivel=127
lokey=c#4
lovel=1
lpc=y/sDQtZo0cLflglD9N67wvr2DELk1tDAYVE7wAwuhkCRsrVABEBNwX7Ewj/QaBlBkw5ov8EYG8HKh+5AlJKCv2y3BsHm+rZBOcHqwVBwp0Gd1VHBbC1jQV3LLMEBzDhA
lpc_rms=-18.10
offset=104000
pitch_keycenter=d4
sample=Oboe_fall_FF_D4.opus
</region>

<region>
hikey=d5
hivel=127
lokey=c#5
lovel=1
lpc=yq2NQSWlX8Kk/J1CwzGBwvd/AUJDrdvAY2lAwDTVeEANX4jAU7PeQCO2GsGV28ZA0UAFQNYJa8Cq1wI/Twd6P3ypVcCJQ6tAPQwGwG5TPsDO1IxAVdtWv1gSEsD8C8c/
lpc_rms=-20.18
offset=104000
pitch_keycenter=d5
sample=Oboe_fall_FF_D5.opus
</region>

<region>
hikey=d6
hivel=127
lokey=c#6
lovel=1
lpc=2BvYQbDciMIl8o5CONsOwpelpkBF6yhBchxdwfEqEUFCbv6/v5e9PsbcA8A366VAJC5WwKbSQD/EGypAceiDwK/2JECVxY9ALpjQwCoVwb/MpaTAOF7oQWs08sG+gCpB
lpc_rms=-20.48
offset=104000
pitch_keycenter=d6
sample=Oboe_fall_FF_D6.opus
</region>

<region>
hikey=e4
hivel=127
lokey=d#4
lovel=1
lpc=Lb8WQoNi8sLk+SRDpI/pwizkBUKufn9Bn7+OwRtY9EAuYtXA1on6QP/E2sD0iJ6/NWcnQYPYyMDA7xnAJ/X0P/5dvkCmeFDBhzpGQZTA/MBDfcE/w/ENQe+EQMHOx51A
lpc_rms=-17.22
offset=104000
pitch_keycenter=e4
sample=Oboe_fall_FF_E4.opus
</region>

<region>
hikey=e5
hivel=127
lokey=d#5
lovel=1
lpc=8xl/QmvdN8O3iWRDyU8fww9Zi0IV42LBXcBhwIuBhkHdc9nBUWJ7QZUdIcDTpoW+q8JHQS4tgMF+eSlBPdF8wTJwtEFpUnTBaSf2P8dKI0HQy4fBZuPeQZXg+ME07XBB
lpc_rms=-10.51
offset=104000
pitch_keycenter=e5
sample=Oboe_fall_FF_E5.opus
</region>

<region>
hikey=A6
hivel=127
lokey=d#6
lovel=1
lpc=i8ZoQmCkFcMPGx9Dnn2fwhgORUHZIA5BRB1LwBYJVkAQNiXBOPdtQVPZ+MDqVXFAJ6wVwCEVTUCF/Iq/0faQQON29cBPTElBSMU3wkg4m0JwJDXCVk+3wI5WeUFwPWnA
lpc_rms=-12.37
offset=104000
pitch_keycenter=E6
sample=Oboe_fall_FF_E6.opus
</region>

<region>
hikey=f#4
hivel=127
lokey=f4
lovel=1
lpc=0iy5QXADkcJtzcFCjfKDwqNLZkEr11pBZSM4wWWudkDf8Ku/+OuGPwHz/b+qskHA1HBFQdMhU8H4RudAu1o5v1iBQMAUviVArScJwAadTEAOWKrAW53jQHOKl8Al1ow/
lpc_rms=-21.56
offset=104000
pitch_keycenter=f#4
sample=Oboe_fall_FF_F#4.opus
</region>

<region>
hikey=f#5
hivel=127
lokey=f5
lovel=1
lpc=lm3MQcRtmsLcpNpCyyqywqffLEIooVvBzp4WQWmOgsDCDN3AiwsVQQTWoz/x9RnBWGwWQUJdnMAcRxpA8tOIPyKOqMBbPeNAYYyAwDxrSUDaotrApfEaQb3LxsBwOhFA
lpc_rms=-16.66
offset=104000
pitch_keycenter=f#5
sample=Oboe_fall_FF_F#5.opus
</region>

<region>
hikey=g#4
hivel=127
lokey=g4
lovel=1
lpc=+wOoQXEAdMIiWY1C35nzwWKEWcEeAcZBZZ8PwdvlysDDwhhBN0zGwEbATD9+YclAFMkYwQX/D0EmdL/A6ptIP4OMXEBh8KDAhiz5QN+RQ8Fn2ypBN+2Ev8RYlsBbKRRA
lpc_rms=-21.95
offset=104000
pitch_keycenter=g#4
sample=Oboe_fall_FF_G#4.opus
</region>

<region>
hikey=g#5
hivel=127
lokey=g5
lovel=1
lpc=91YdQvgc2MKk7fdC2ySHwqkVH0AMLN5BAYhIwasstsD2k+w/Qmm4P6Yj5z/Dv31ADyyFwSyC8kEhlrHBcJzCvmjiokDWpU8/7r9kQLerhMEzNN9BoKB1wZ+oqMBlJcBA
lpc_rms=-14.73
offset=104000
pitch_keycenter=g#5
sample=Oboe_fall_FF_G#5.opus
</region>
</group>

<group>
ampeg_attack=0.05
ampeg_release=5.0
group_label=Release_46-90
lpc_hicc1=127
lpc_locc1=85
trigger=release

<region>
hikey=a#4
hivel=127
lokey=a4
lovel=1
lpc=DevvQa47nML7YpFCL2+owSCwAcFCBUNBz3MbwV3bskDVeJjAq2IHQZE8MMFMAORAm0eqvzWtd0AVEcE/DJ1XwdIED0EFgU5AZWFCwPiOJcBsVyVATuX+PzCTGcAUQMQ+
lpc_rms=-21.53
offset=104000
pitch_keycenter=a#4
sample=Oboe_fall_MF_A#4.opus
</region>

<region>
hikey=a#5
hivel=127
lokey=a5
lovel=1
lpc=ZQEJQlnjs8IzfrRCjsj3wRosPsH1XH1BAjf5wLGVBUHD5uLALj5AQNDC6b9pHA5AGBaHQKtH6sDQsstAoobewB8gBkGZD7q/jPZiwO1v5D/5v3PASlOHQRhhpMEnwA1B
lpc_rms=-18.66
offset=104000
pitch_keycenter=a#5
sample=Oboe_fall_MF_A#5.opus
</region>

<region>
hivel=127
key=c4
lovel=1
lpc=5YB0QsD3SMN89IJDos0gw1GKKUKd/HPBVKkDQtBQ5cGIH5BBrEbbwfCAmkFEA0tBzF7dwWOTrkG35IDAqaAewdtnij/QjFBBLGULwYvk8MAimS5BUD/ZQA5Xg8GLKu1A
lpc_rms=-17.96
offset=104000
sample=Oboe_fall_MF_C4.opus
</region>

<region>
hikey=c5
hivel=127
lokey=b4
lovel=1
lpc=isKkQQUoVMLe+0dCyo5xwR5D3MAZ4f5AoOBfwJPbcEBbrO+/soEDwNxr97/0FNVAOCkqwHWmmMCxdRxBgUUFwWzvdUCzwU0/c+CmwPouo0DnYb6/Y7nVvhU2iz9Yiju/
lpc_rms=-24.59
offset=104000
pitch_keycenter=c5
sample=Oboe_fall_MF_C5.opus
</region>

<region>
hikey=c6
hivel=127
lokey=b5
lovel=1
lpc=imKOQazePcL0HlVCQ6zXweJgHcCxrXhBOuk6wVjhi0AV2+Q+GeXyv746hj/DRz1ANbKJwIftZT8/e4VAmpySwIXEyj+3/W9ALi8AwYzGBUGmKqM/hhyBwd2wikG4C7fA
lpc_rms=-23.82
offset=104000
pitch_keycenter=c6
sample=Oboe_fall_MF_C6.opus
</region>

<region>
hikey=d4
hivel=127
lokey=c#4
lovel=1
lpc=18HdQUi8qcKDk8xCxtxbwkaa7UD7Yrs/LYjnQAq3JcF34AZBo9HFwF4CXkBBnoDAlwMSQTaJEMEEinNAlkNGP2fK9cC56D5Bp3dHwJEfE8GhovxA1xdtP8duI8C57qQ+
lpc_rms=-22.07
offset=104000
pitch_keycenter=d4
sample=Oboe_fall_MF_D4.opus
</region>

<region>
hikey=d5
hivel=127
lokey=c#5
lovel=1
lpc=QdemQUHigMJgOLBCB8qFwr0g3UHpSyXAMBovwHpYJECIZV3A7Q2RQE1/qcAKhnZAnHuHPjnM8b99EzE7+DzeP6kEGMBJhec/lz3WP7plKsBntI+/kHbhQP/8CMFYd4BA
lpc_rms=-20.63
offset=104000
pitch_keycenter=d5
sample=Oboe_fall_MF_D5.opus
</region>

<region>
hikey=d6
hivel=127
lokey=c#6
lovel=1
lpc=ENO7QSfUcMLTmn5CixEBwrn9rUCuuKVAy1CtwFCuukDHdPvAjNgNQfZtqMA4IqQ/tMT6PniLBUDXjPa/OqsIwAPprUArhSbA7YXhvlmvBEDLIY7BP+ERQs4M4cEEd/hA
lpc_rms=-21.34
offset=104000
pitch_keycenter=d6
sample=Oboe_fall_MF_D6.opus
</region>

<region>
hikey=e4
hivel=127
lokey=d#4
lovel=1
lpc=Q1suQgOBBsNZOyJDzsSrwsezzUD7W0NBcsUbP9Hh3b8HhnbACSfPP4naBECJ3FvB+9DPQd7iTMEWVCfBvv4YQQKaEUGq6jPBg6qfwJsBQEEn8j7BFhiaQUx4mcFMX+NA
lpc_rms=-18.79
offset=104000
pitch_keycenter=e4
sample=Oboe_fall_MF_E4.opus
</region>

<region>
hikey=e5
hivel=127
lokey=d#5
lovel=1
lpc=E/F7QgULKsPVu0BDu/XxwqpmMkLoZcY/ACZxwfwWpUEwVTTBtxBGwXZ4f0ESdu/Aok2MQNtYyUCVu//APgWYv1MsnUChT7Q/ij6hwF+/3D4+Kvq/MCGKQccVssF8GixB
lpc_rms=-15.78
offset=104000
pitch_keycenter=e5
sample=Oboe_fall_MF_E5.opus
</region>

<region>
hikey=A6
hivel=127
lokey=d#6
lovel=1
lpc=1PZsQqY3F8O6Ix1Dj4eQwoVXHUAmvXZBRj7OwC/D4kB2slfB9xZ0QTvzz8CFD0ZAQq9lwLP5nEDUlDvAIFGpQBR8tsA6ABxBs+XXwZeUe0GNaC1CGnWNwv0XHkJO6OHA
lpc_rms=-19.05
offset=104000
pitch_keycenter=E6
sample=Oboe_fall_MF_E6.opus
</region>

<region>
hikey=f#4
hivel=127
lokey=f4
lovel=1
lpc=sdLvQb3SusJTtvJC4CaYwlTfOUFAzURBu0ljvjFfmcBzTy2//JcavzkL/D8itqG+jKGHQGbIIMF+0ARBxtxVPygPNsAwyobAxnNWQCb3q0CGcgzB9G+JQKFvoD9w596/
lpc_rms=-21.20
offset=104000
pitch_keycenter=f#4
sample=Oboe_fall_MF_F#4.opus
</region>

<region>
hikey=f#5
hivel=127
lokey=f5
lovel=1
lpc=aJ/3QcRIucItyOxCSrGVwuOxc0HxxRJBAUyMwDAaO0D0EpjA/j4MvzyCCUEWBTXBvjgsQcRFCMGC7TVA/k/nQAIuK8HJmHtAUUg9QKq3GcABE9+/ZIx/QPMAAsDqFwQ/
lpc_rms=-18.38
offset=104000
pitch_keycenter=f#5
sample=Oboe_fall_MF_F#5.opus
</region>

<region>
hikey=g#4
hivel=127
lokey=g4
lovel=1
lpc=B/O0QQ2nesJWNIFCDrSPwbahqsE0xcJBYbX2wJeW/b9SH4JA8ZS1wHez8D+MOuw+MvyQQPsbt7/XUOrASXB9QJ94DUHXfjrBdPytvLkxIEG3QSHB2snSQNKQS8A4gjo/
lpc_rms=-22.17
offset=104000
pitch_keycenter=g#4
sample=Oboe_fall_MF_G#4.opus
</region>

<region>
hikey=g#5
hivel=127
lokey=g5
lovel=1
lpc=BcsAQpabrMKhnbFCpR8KwkZqAMEYk5ZBAXtWwdp5tEAKYWxAChUNwdy6LT+cnSRBHaEBwWIIikCMJQLAEFVHwNKzDEGwNELBa1khQRiAnb6Z/IPAUMiAQHGNhsAshRJA
lpc_rms=-19.39
offset=104000
pitch_keycenter=g#5
sample=Oboe_fall_MF_G#5.opus
</region>
</group>